<svg width="1000" height="295" viewBox="0 0 1000 295" fill="none" xmlns="http://www.w3.org/2000/svg">
<path d="M195.23 139.83C197.14 139.6 198.97 139.59 200.64 139.83C201.61 137.6 201.78 133.76 200.9 129.57C199.6 123.35 197.84 119.59 194.21 120.17C190.58 120.76 190.44 125.26 191.74 131.48C192.47 134.98 193.77 137.97 195.22 139.82L195.23 139.83Z" fill="black"/>
<path d="M164.03 144.75C166.63 145.89 168.23 146.65 168.85 145.99C169.25 145.58 169.13 144.79 168.51 143.78C167.23 141.69 164.59 139.56 161.79 138.37C156.06 135.9 149.23 136.72 143.96 140.51C142.22 141.78 140.57 143.55 140.81 144.62C140.89 144.97 141.15 145.23 141.76 145.31C143.19 145.47 148.21 142.94 153.98 142.59C158.06 142.34 161.43 143.61 164.03 144.76V144.75Z" fill="black"/>
<path d="M158.79 147.73C155.4 148.26 153.54 149.38 152.34 150.42C151.32 151.31 150.68 152.3 150.69 153C150.69 153.33 150.84 153.52 150.95 153.62C151.1 153.76 151.29 153.83 151.51 153.83C152.27 153.83 153.99 153.14 153.99 153.14C158.7 151.45 161.81 151.66 164.89 152.01C166.59 152.2 167.4 152.31 167.77 151.72C167.88 151.55 168.01 151.19 167.67 150.64C166.88 149.35 163.46 147.18 158.79 147.73Z" fill="black"/>
<path d="M184.69 158.69C186.99 159.82 189.52 159.38 190.35 157.7C191.18 156.02 189.98 153.75 187.68 152.62C185.38 151.49 182.85 151.93 182.02 153.61C181.2 155.29 182.39 157.56 184.69 158.69Z" fill="black"/>
<path d="M199.48 145.77C197.61 145.74 196.06 147.79 196.02 150.35C195.98 152.91 197.46 155.01 199.32 155.05C201.18 155.09 202.74 153.03 202.78 150.47C202.82 147.91 201.34 145.81 199.48 145.77Z" fill="black"/>
<path d="M72.02 191.73C71.5 191.85 70.92 191.99 70.28 191.98C68.91 191.95 67.74 191.37 67.09 190.36C66.24 189.05 66.29 187.1 67.23 184.87C67.36 184.57 67.51 184.24 67.67 183.87C69.17 180.51 71.68 174.88 68.86 169.52C66.74 165.48 63.29 162.97 59.13 162.44C55.14 161.93 51.03 163.41 48.41 166.3C44.28 170.86 43.63 177.06 44.43 179.26C44.72 180.06 45.18 180.29 45.51 180.33C46.21 180.42 47.25 179.91 47.9 178.16C47.95 178.03 48.01 177.84 48.09 177.59C48.38 176.66 48.92 174.94 49.81 173.56C50.88 171.89 52.54 170.74 54.49 170.33C56.48 169.9 58.51 170.28 60.21 171.4C63.1 173.29 64.22 176.84 62.98 180.23C62.34 181.98 61.3 185.33 61.53 188.08C61.99 193.65 65.42 195.88 68.49 196.12C71.48 196.23 73.57 194.55 74.1 193.33C74.41 192.6 74.15 192.16 73.98 191.97C73.52 191.39 72.75 191.57 72.01 191.74L72.02 191.73Z" fill="black"/>
<path d="M246.61 181.78C246.5 181.38 245.75 178.67 244.74 175.4C243.72 172.13 242.67 169.83 242.67 169.83C246.76 163.71 246.83 158.24 246.29 155.14C245.71 151.3 244.11 148.02 240.89 144.64C237.67 141.26 231.07 137.79 221.81 135.19C220.75 134.89 217.26 133.93 216.95 133.84C216.93 133.64 216.69 122.38 216.48 117.54C216.33 114.05 216.03 108.59 214.33 103.22C212.31 95.95 208.8 89.58 204.41 85.51C216.52 72.96 224.08 59.13 224.06 47.27C224.03 24.46 196.01 17.56 161.49 31.85C161.45 31.87 154.23 34.93 154.18 34.96C154.15 34.93 140.96 21.99 140.76 21.81C101.38 -12.52 -21.69 124.27 17.66 157.49L26.26 164.77C24.03 170.55 23.15 177.17 23.87 184.29C24.79 193.43 29.51 202.2 37.15 208.97C44.41 215.4 53.95 219.47 63.21 219.46C78.52 254.74 113.51 276.39 154.53 277.61C198.53 278.92 235.47 258.27 250.94 221.18C251.95 218.58 256.25 206.85 256.25 196.5C256.25 186.15 250.37 181.78 246.62 181.78H246.61ZM66.58 209.55C65.24 209.78 63.88 209.87 62.5 209.84C49.21 209.48 34.85 197.52 33.43 183.33C31.85 167.65 39.87 155.58 54.06 152.72C55.76 152.38 57.81 152.18 60.02 152.3C67.97 152.74 79.68 158.84 82.36 176.16C84.73 191.5 80.97 207.11 66.59 209.57L66.58 209.55ZM51.74 143.33C42.91 145.05 35.12 150.05 30.36 156.97C27.51 154.6 22.21 150 21.28 148.21C13.68 133.78 29.57 105.72 40.68 89.88C68.12 50.72 111.1 21.08 131 26.46C134.23 27.38 144.95 39.8 144.95 39.8C144.95 39.8 125.06 50.83 106.62 66.22C81.77 85.35 63 113.16 51.75 143.34L51.74 143.33ZM102.42 89.72C112.17 78.45 124.18 68.65 134.94 63.14C135.31 62.95 135.71 63.35 135.5 63.72C134.65 65.27 133 68.58 132.48 71.09C132.4 71.48 132.83 71.78 133.16 71.55C139.85 66.99 151.5 62.1 161.71 61.47C162.15 61.44 162.36 62.01 162.01 62.27C160.46 63.46 158.76 65.11 157.52 66.78C157.31 67.06 157.51 67.47 157.86 67.47C165.03 67.52 175.14 70.03 181.73 73.73C182.18 73.98 181.86 74.84 181.36 74.73C171.39 72.44 155.07 70.71 138.12 74.85C122.99 78.54 111.44 84.24 103.01 90.37C102.58 90.68 102.07 90.12 102.42 89.72ZM247.06 200.01C245.15 211.59 240.23 220.98 231.96 229.63C226.93 235.05 220.81 239.76 213.82 243.19C210.11 245.14 206.15 246.83 201.98 248.19C170.8 258.37 138.89 247.18 128.61 223.14C127.79 221.33 127.09 219.44 126.55 217.46C122.17 201.62 125.89 182.61 137.52 170.65C138.24 169.89 138.97 168.99 138.97 167.86C138.97 166.92 138.37 165.92 137.85 165.21C133.78 159.31 119.68 149.25 122.51 129.78C124.54 115.8 136.77 105.95 148.18 106.53C149.14 106.58 150.11 106.64 151.07 106.7C156.01 106.99 160.32 107.63 164.39 107.8C171.2 108.09 177.32 107.1 184.57 101.06C187.02 99.02 188.98 97.25 192.3 96.69C192.65 96.63 193.52 96.32 195.25 96.4C197.02 96.49 198.71 96.98 200.22 97.99C206.03 101.86 206.86 111.23 207.16 118.08C207.33 121.99 207.8 131.46 207.97 134.18C208.34 140.39 209.97 141.27 213.28 142.36C215.14 142.97 216.86 143.43 219.41 144.14C227.11 146.3 231.67 148.49 234.54 151.31C236.26 153.07 237.05 154.94 237.3 156.72C238.21 163.34 232.16 171.52 216.15 178.95C198.65 187.07 177.42 189.13 162.76 187.49C161.63 187.36 157.64 186.91 157.62 186.91C145.89 185.33 139.19 200.49 146.24 210.88C150.78 217.57 163.14 221.93 175.51 221.93C203.87 221.93 225.66 209.82 233.77 199.37C234.01 199.06 234.04 199.02 234.42 198.45C234.82 197.85 234.49 197.52 233.99 197.86C227.37 202.39 197.94 220.39 166.47 214.97C166.47 214.97 162.65 214.34 159.16 212.98C156.39 211.9 150.58 209.23 149.87 203.27C175.27 211.12 191.26 203.7 191.26 203.7C191.55 203.58 191.75 203.25 191.71 202.92C191.67 202.52 191.31 202.22 190.91 202.26C190.91 202.26 170.09 205.34 150.42 198.14C152.56 191.18 158.26 193.69 166.87 194.39C182.39 195.31 196.3 193.05 206.58 190.1C215.49 187.54 227.19 182.5 236.27 175.33C239.33 182.06 240.42 189.47 240.42 189.47C240.42 189.47 242.79 189.05 244.77 190.27C246.64 191.42 248.02 193.82 247.08 200.02L247.06 200.01ZM151.01 198.94C151.01 198.94 151.01 198.94 151.01 198.95C151.01 198.95 151.01 198.94 151.01 198.93V198.94Z" fill="black"/>
<path d="M397.61 161.21C376.91 161.21 376.55 183.81 371.65 183.81C370.63 183.81 369.82 182.91 369.82 181.67C369.82 180.02 370.25 178.59 370.25 175.92C370.25 167.81 364.54 161.21 352.57 161.21C342.41 161.21 334.97 166.3 330.43 175.71C328.13 180.48 328.33 183.8 326 183.8C325.14 183.8 324.47 182.99 324.47 181.82C324.47 178.36 327.52 175.2 327.52 167.77C327.52 165.84 327.37 164.21 327.06 162.88H307.36V239.22H334.08V197.8C334.08 189.64 337.58 184.41 343.55 184.41C347.51 184.41 351.03 187.87 351.03 194.2V239.22H377.75V197.8C377.75 188.63 381.99 184.41 387.22 184.41C391.6 184.41 394.7 188.46 394.7 194.2V239.22H421.11V192.35C421.11 171.87 412.98 161.2 397.6 161.2L397.61 161.21Z" fill="black"/>
<path d="M580.36 141.52H553.95V239.23H580.36V141.52Z" fill="black"/>
<path d="M589.07 200.15C589.07 226.12 605.88 241.07 627.7 241.07C640.21 241.07 649.77 236.12 655.64 231.3V206.11C649.7 210.17 640.56 214.81 630.75 214.81C618.51 214.81 612.12 209.73 612.12 200.92C612.12 192.11 619.49 187.18 630.29 187.18C640.07 187.18 649.04 191.07 655.63 195.58V168.86C650.05 164.71 640.2 161.07 627.69 161.07C604.27 161.07 589.06 175.71 589.06 200.16L589.07 200.15Z" fill="black"/>
<path d="M713.81 161.37C703.07 161.37 696.85 166.35 692.28 175.57C690.27 179.64 690.12 183.66 687.85 183.66C687 183.66 686.32 182.87 686.32 181.68C686.32 177.45 691.36 171.14 691.36 152.52C691.36 147.84 690.9 144.23 689.99 141.68H666.94V239.24H693.66V198.15C693.66 190.45 697.71 184.58 703.89 184.58C708.49 184.58 711.68 188.32 711.68 194.37V239.24H738.4V191.45C738.4 171.51 729.7 161.37 713.82 161.37H713.81Z" fill="black"/>
<path d="M959.01 161.06C947.2 161.06 941.17 167.79 937.8 174.01C935.13 178.93 934.74 183.66 932.45 183.66C931.33 183.66 930.77 183 930.77 181.68C930.77 179.34 933.82 175.37 933.82 168.86C933.82 166.21 933.61 164.23 933.21 162.91H913.21V258.79H940.08V228.67C943.49 235.95 950.63 240.77 960.39 240.77C977.99 240.77 990.01 226.25 990.01 200.92C990.01 177.55 978.87 161.07 959.02 161.07L959.01 161.06ZM951.83 223.2C946.44 223.2 940.53 217.61 940.53 203.5C940.53 191.21 945.36 183.96 951.83 183.96C959.27 183.96 963.43 191.13 963.43 203.5C963.43 217.25 958.64 223.2 951.83 223.2Z" fill="black"/>
<path d="M468.87 161.06C455.07 161.06 442.43 164.47 433.65 168.84V190.95C443.87 185.43 454.35 181.34 463.54 181.34C473.38 181.34 477.55 186.53 476.96 193.36C472.99 192.95 468.58 192.78 463.23 192.78C442.33 192.78 429.23 200.94 429.23 218.7C429.23 233.29 440.59 240.81 453.02 240.81C465.45 240.81 473.49 235.01 478.32 226.27C481.07 221.29 480.84 218.24 482.63 218.24C483.51 218.24 484.12 218.87 484.12 219.85C484.12 223.04 483.21 224.9 483.21 229.22C483.21 233.26 483.74 236.66 484.58 239.13H503.79V198.26C503.79 175.05 493.17 161.05 468.87 161.05V161.06ZM459.87 222.05C454.91 222.05 452.25 219.88 452.25 216.1C452.25 211.18 456.88 207.41 468.87 207.41C471.51 207.41 473.9 207.5 476.07 207.68C475.01 214.71 468.89 222.05 459.87 222.05Z" fill="black"/>
<path d="M564.13 90.94V48.11H545.74V88.75C545.74 98.82 539 105.55 530.15 105.55C521.3 105.55 514.56 98.81 514.56 88.75V48.11H496.2L496.3 90.94C496.3 109.59 511.23 123.23 530.2 123.23C549.17 123.23 564.13 109.62 564.13 90.94Z" fill="black"/>
<path d="M635.15 121.75H653.51V65.31H675.42V48.11H613.22V65.31H635.15V121.75Z" fill="black"/>
<path d="M601.35 48.14H582.99V121.78H601.35V48.14Z" fill="black"/>
<path d="M444.04 121.75H462.4V65.31H484.3V48.11H422.1V65.31H444.04V121.75Z" fill="black"/>
<path d="M325.74 84.97V48.14H307.38V121.78H325.74V84.97Z" fill="black"/>
<path d="M362.95 81.12C362.95 71.05 369.69 64.32 378.54 64.32C387.39 64.32 394.13 71.06 394.13 81.12V121.76H412.49L412.44 78.93C412.44 60.28 397.48 46.64 378.51 46.64C359.54 46.64 344.58 60.25 344.58 78.93V121.76H362.94V81.12H362.95Z" fill="black"/>
<path d="M878.55 161.21C857.85 161.21 857.49 183.81 852.59 183.81C851.57 183.81 850.76 182.91 850.76 181.67C850.76 180.02 851.19 178.59 851.19 175.92C851.19 167.81 845.48 161.21 833.51 161.21C823.35 161.21 815.91 166.3 811.37 175.71C809.07 180.48 809.27 183.8 806.94 183.8C806.08 183.8 805.41 182.99 805.41 181.82C805.41 178.36 808.46 175.2 808.46 167.77C808.46 165.84 808.31 164.21 808 162.88H788.3V239.22H815.02V197.8C815.02 189.64 818.52 184.41 824.49 184.41C828.45 184.41 831.97 187.87 831.97 194.2V239.22H858.69V197.8C858.69 188.63 862.93 184.41 868.16 184.41C872.54 184.41 875.64 188.46 875.64 194.2V239.22H902.05V192.35C902.05 171.87 893.92 161.2 878.54 161.2L878.55 161.21Z" fill="black"/>
<path d="M762.97 168.24C757.37 168.24 752.94 167.43 749.69 165.8V239.24H776.1V165.8C772.67 167.31 768.59 168.24 762.97 168.24Z" fill="black"/>
<path d="M762.82 141.06C751.9 141.06 746.18 145.89 746.18 151.44C746.18 157.42 752.95 161.82 762.82 161.82C772.69 161.82 779.46 157.42 779.46 151.44C779.46 145.89 773.73 141.06 762.82 141.06Z" fill="black"/>
<path d="M528.99 168.24C523.39 168.24 518.96 167.43 515.71 165.8V239.24H542.12V165.8C538.69 167.31 534.61 168.24 528.99 168.24Z" fill="black"/>
<path d="M528.84 141.06C517.92 141.06 512.2 145.89 512.2 151.44C512.2 157.42 518.97 161.82 528.84 161.82C538.71 161.82 545.48 157.42 545.48 151.44C545.48 145.89 539.75 141.06 528.84 141.06Z" fill="black"/>
</svg>
