<?xml version="1.0" encoding="utf-8"?>
<!-- Generator: Adobe Illustrator 16.0.0, SVG Export Plug-In . SVG Version: 6.00 Build 0)  -->
<!DOCTYPE svg PUBLIC "-//W3C//DTD SVG 1.1//EN" "http://www.w3.org/Graphics/SVG/1.1/DTD/svg11.dtd">
<svg version="1.1" id="Layer_1" xmlns="http://www.w3.org/2000/svg" xmlns:xlink="http://www.w3.org/1999/xlink" x="0px" y="0px"
	 width="417.6px" height="86.4px" viewBox="0 0 417.6 86.4" enable-background="new 0 0 417.6 86.4" xml:space="preserve">
<path fill="#0652DD" d="M89.38,43.2c0-22.399-18.223-40.624-40.623-40.624C26.355,2.576,8.133,20.801,8.133,43.2
	C8.132,65.6,26.357,83.823,48.756,83.825C71.159,83.825,89.38,65.598,89.38,43.2z"/>
<path fill="#FFFFFF" d="M216.435,16.17c3.844-1.467,8.293-1.231,12.021,0.474c-0.162,2.072-1.145,3.979-1.562,6.01
	c-0.069,0.812-0.908,0.491-1.375,0.288c-2.004-0.661-4.592-0.642-6.043,1.126c-1.551,1.8-1.252,4.297-1.281,6.499
	c2.535,0.071,5.066-0.117,7.591,0.117c0.144,2.486,0.021,4.979,0.065,7.476c-2.516,0.458-5.1,0.024-7.635,0.233
	c-0.053,9.812-0.008,19.603-0.021,29.423c-0.021,0.465-0.114,0.906-0.252,1.375c-2.862-0.021-5.735,0.067-8.6-0.047
	c-0.089-10.232,0.043-20.48-0.067-30.729c-2.073-0.113-4.171,0.022-6.245-0.091c-0.06-2.562-0.021-5.124-0.022-7.69
	c2.073-0.071,4.169,0,6.232-0.061c0.05-1.513,0.189-3.004,0.256-4.496C209.876,21.877,212.409,17.72,216.435,16.17z"/>
<path fill="#FFFFFF" d="M109.786,17.076c0.043-0.396-0.139-1.229,0.539-1.115c2.456-0.063,4.918-0.042,7.38-0.01
	c0.642-0.079,0.95,0.582,0.866,1.132c0.021,5.936-0.007,11.857,0.01,17.777c0.936-0.304,1.57-1.095,2.349-1.638
	c3.431-2.519,7.735-3.868,11.998-3.613c3.526,0.159,7.368,1.373,9.424,4.442c1.854,2.519,1.959,5.755,2.157,8.732
	c-0.022,8.758,0.021,17.523-0.022,26.279c-1.531,0.207-3.077,0.057-4.615,0.104c-1.422,0.004-2.853,0.112-4.259-0.115
	c-0.073-8.271,0.054-16.521-0.067-24.766c0.069-2.374-0.948-4.99-3.225-6.021c-1.941-0.771-4.146-1.191-6.194-0.584
	c-2.946,0.688-5.681,2.397-7.478,4.842c-0.188,8.878,0.02,17.732-0.106,26.601c-2.91,0.066-5.827,0.076-8.738,0.021
	C109.77,51.782,109.807,34.428,109.786,17.076z"/>
<path fill="#FFFFFF" d="M190.521,17.414c0.083-0.458-0.166-1.092,0.233-1.421c2.331-0.132,4.678-0.021,7.011-0.067
	c0.536-0.061,1.034,0.146,1.515,0.373c0.023,17.604,0.029,35.214-0.01,52.812c-2.91,0.111-5.813,0.068-8.723,0.021
	C190.506,51.891,190.551,34.653,190.521,17.414z"/>
<g>
	<path fill="#FFFFFF" d="M163.639,29.913c4.356-0.695,8.958-0.274,12.994,1.541c4.299,1.964,6.937,6.682,6.782,11.341
		c0.087,8.784,0.065,17.573,0.012,26.354c-2.864,0.021-5.736,0.049-8.601-0.002c-0.295-1.146-0.069-2.354-0.303-3.49
		c-2.399,2.539-5.789,3.816-9.158,4.381c-2.308,0.115-4.697,0.354-6.911-0.459c-5.235-1.328-9.523-6.346-9.29-11.854
		c-0.268-3.893,1.354-7.934,4.521-10.275c2.546-1.842,5.709-2.865,8.856-2.711c4.338-0.208,8.845,1.145,12.021,4.193
		c0.168-1.701,0.045-3.398,0.074-5.104c0.093-2.587-1.826-4.893-4.177-5.78c-2.146-1.007-4.569-0.727-6.863-0.632
		c-2.304,0.442-4.528,1.354-6.434,2.729c-0.824,0.656-1.602,1.387-2.532,1.902c-0.872-1.159-1.516-2.462-2.27-3.691
		c-0.467-0.833-1.073-1.608-1.283-2.552C154.551,32.638,158.937,30.371,163.639,29.913z M159.919,52.981
		c-1.717,1.582-2.463,4.221-1.602,6.436c0.74,2.33,3.007,3.843,5.307,4.355c1.492,0.188,3.005,0.115,4.499,0.035
		c2.498-0.436,4.94-1.604,6.544-3.613c-0.036-1.842-0.046-3.705,0.007-5.555c-2.008-2.447-5.2-3.748-8.341-3.691
		C164.035,50.76,161.597,51.325,159.919,52.981z"/>
</g>
<path fill="#FFFFFF" d="M241.181,32.638c3.457-2.39,7.814-3.609,11.998-2.834c2.104,0.444,4.23,1.303,5.619,3.021
	c1.02,0.903,1.465,2.198,2.166,3.332c2.85-3.657,7.199-6.173,11.822-6.544c3.188-0.212,6.695,0.396,9.119,2.646
	c1.606,1.457,2.443,3.562,2.904,5.642c0.438,3.924,0.229,7.868,0.274,11.812c-0.035,6.479,0.065,12.955-0.062,19.43
	c-2.867,0.051-5.729,0.021-8.601,0.021c-0.373-1.244-0.211-2.551-0.237-3.84c-0.021-7.289,0.026-14.58-0.021-21.873
	c0.129-2.121-0.865-4.449-2.863-5.382c-1.275-0.535-2.678-0.907-4.043-0.59c-3.08,0.688-6.033,2.486-7.664,5.241
	c0.02,8.803,0.016,17.604,0.006,26.406c-2.912,0.027-5.824,0.102-8.734-0.049c-0.065-6.104-0.012-12.221-0.021-18.332
	c-0.021-3.008,0.115-5.983-0.209-8.97c-0.379-1.979-1.934-3.736-3.959-4.107c-1.854-0.678-3.848-0.076-5.567,0.726
	c-1.654,0.812-3.15,1.974-4.312,3.423c-0.256,0.359-0.627,0.729-0.533,1.222c-0.023,8.688,0.021,17.377-0.023,26.064
	c-2.909,0.104-5.831,0.062-8.735,0.01c0.021-12.836-0.022-25.683,0.021-38.514c2.502-0.068,5.008-0.023,7.522-0.041
	c0.396,0.064,1.188-0.092,1.175,0.534c0.114,1.25,0.021,2.513,0.069,3.751C239.304,34.198,240.163,33.309,241.181,32.638z"/>
<g>
	<path fill="#FFFFFF" d="M306.136,29.83c3.938-0.591,8.039-0.146,11.732,1.328c4.092,1.729,7.533,4.963,9.438,8.976
		c2.763,5.654,2.836,12.508,0.498,18.318c-2.168,5.383-6.942,9.67-12.619,10.977c-2.682,0.956-5.539,0.723-8.313,0.65
		c-2.436-0.377-4.875-0.973-7.035-2.186c-4.869-2.496-8.318-7.345-9.525-12.646c-0.752-2.816-0.516-5.795-0.422-8.688
		c0.736-4.553,2.76-9.042,6.299-12.104C298.913,31.901,302.505,30.521,306.136,29.83z M308.308,37.538
		c-2.271,0.308-4.475,1.282-6.041,2.979c-2.463,2.5-3.375,6.079-3.502,9.501c0.213,2.602,0.668,5.287,2.139,7.494
		c1.812,3.023,5.304,4.924,8.833,4.814c3.42,0.011,6.729-1.862,8.508-4.771c2.102-3.191,2.354-7.175,1.795-10.845
		c-0.771-3.771-3.24-7.438-7.025-8.646C311.497,37.644,309.89,37.17,308.308,37.538z"/>
</g>
<g>
	<path fill="#FFFFFF" d="M348.212,29.813c4.769-0.668,9.826,0.048,14.002,2.54c5.506,3.184,8.791,9.389,9.207,15.624
		c-0.02,2.309,0.162,4.646-0.49,6.895c-1.143,5.627-4.854,10.787-10.096,13.256c-6.459,3.089-14.584,2.783-20.617-1.188
		c-4-2.713-6.871-7.01-7.877-11.736c-0.785-2.812-0.516-5.752-0.438-8.643c0.723-4.512,2.725-8.946,6.221-11.997
		C340.86,31.914,344.526,30.508,348.212,29.813z M350.103,37.577c-2.094,0.301-4.104,1.189-5.596,2.729
		c-3.004,2.959-4.076,7.433-3.516,11.528c0.27,3.102,1.699,6.127,4.074,8.18c1.866,1.568,4.338,2.411,6.776,2.327
		c3.332-0.021,6.594-1.841,8.361-4.685c2.156-3.207,2.44-7.293,1.854-11.006c-0.647-2.874-2.118-5.708-4.596-7.386
		C355.321,37.863,352.622,37.126,350.103,37.577z"/>
</g>
<path fill="#FFFFFF" d="M389.577,31.181c4.26-1.893,9.262-2.195,13.627-0.466c3.953,1.547,6.248,5.847,6.211,9.963
	c0.098,9.48-0.01,18.979,0.051,28.467c-2.908-0.021-5.83,0.141-8.729-0.074c-0.119-8.313,0.021-16.627-0.074-24.95
	c0.016-2.422-1.197-5.039-3.543-5.981c-1.785-0.63-3.744-1.049-5.605-0.499c-3.041,0.688-6.045,2.354-7.711,5.055
	c-0.117,8.814,0.054,17.636-0.071,26.439c-2.91,0.075-5.824,0.067-8.732,0.013c-0.021-12.836-0.047-25.691,0.02-38.511
	c2.863-0.069,5.755-0.069,8.617-0.021c0.256,1.469,0.121,2.959,0.164,4.45C385.603,33.621,387.472,32.2,389.577,31.181z"/>
<circle fill="#ED4C67" cx="56.533" cy="43.2" r="30.289"/>
<circle fill="#FFC312" cx="66.818" cy="43.2" r="19.001"/>
</svg>
