<?xml version="1.0" encoding="utf-8"?>
<!-- Generator: Adobe Illustrator 16.0.0, SVG Export Plug-In . SVG Version: 6.00 Build 0)  -->
<!DOCTYPE svg PUBLIC "-//W3C//DTD SVG 1.1//EN" "http://www.w3.org/Graphics/SVG/1.1/DTD/svg11.dtd">
<svg version="1.1" id="Layer_1" xmlns:serif="http://www.serif.com/"
	 xmlns="http://www.w3.org/2000/svg" xmlns:xlink="http://www.w3.org/1999/xlink" x="0px" y="0px" width="1600px" height="1600px"
	 viewBox="0 0 1600 1600" enable-background="new 0 0 1600 1600" xml:space="preserve">
<g id="Gears">
	<g id="Left_Gear">
		<path fill="none" stroke="#F25252" stroke-width="16.02" stroke-miterlimit="10" d="M717.271,519.055l9.211-78.756
			c-26.712-11.975-54.806-21.186-84.283-27.173l-38.688,69.085l-78.295-0.461l-38.228-69.085
			c-30.397,5.988-59.413,15.66-86.585,28.095l9.21,78.756l-63.558,46.057l-71.848-33.161
			c-20.725,22.107-38.688,46.977-53.425,73.689l53.886,58.031l-24.409,74.612l-77.375,15.198
			c-1.843,15.66-2.763,31.319-2.763,47.439c0,14.737,0.92,29.015,2.763,43.293l77.835,15.198l23.949,74.611l-53.886,58.031
			c15.198,26.713,33.161,51.582,53.886,74.15l71.848-33.16l63.558,46.057l-9.671,78.757c27.634,12.435,56.188,22.106,86.585,28.094
			l38.228-69.544h78.295l38.688,69.084c30.397-5.988,59.413-15.66,86.585-28.556l-9.671-78.757"/>
		<path fill="none" stroke="#B74242" stroke-width="12.03" stroke-miterlimit="10" d="M669.833,580.311
			c-83.362-40.53-186.068-31.318-262.061,31.779c-103.167,86.125-117.444,239.494-31.319,343.12
			c73.229,87.968,195.28,111.456,293.379,63.559"/>
		<path fill="none" stroke="#F25252" stroke-width="12.03" stroke-miterlimit="10" d="M716.35,658.147
			c-74.15-80.139-199.423-89.351-284.628-18.424c-87.968,73.23-99.942,204.03-26.713,291.999
			c73.23,87.968,204.03,99.941,291.997,26.712c4.606-2.764,9.212-6.908,13.358-11.053l5.986-6.448"/>
	</g>
	<g id="Right_Gear">
		<path fill="none" stroke="#F25252" stroke-width="16.02" stroke-miterlimit="10" d="M1427.001,846.516
			c1.843-15.658,2.763-32.238,2.763-48.359c0-15.658-0.92-31.318-2.763-46.977l-81.06-15.659l-25.331-77.835l55.729-60.795
			c-15.659-27.634-34.542-53.425-56.189-76.914l-74.611,35.002l-66.321-47.898l9.672-81.981
			c-27.634-12.435-57.109-22.107-87.967-28.555l-40.531,72.309l-81.979-0.461l-40.068-71.848
			c-31.779,6.448-62.177,16.12-90.732,29.016l9.672,81.981l-66.321,47.898l-75.071-34.542c-21.647,23.027-40.53,48.819-56.19,76.913
			l56.19,60.335l-25.331,77.834l-81.06,16.121c-1.842,16.12-2.763,32.7-2.763,49.741c0,15.198,0.921,30.397,2.763,45.595
			l81.06,16.12l25.331,77.836l-56.19,60.333c15.66,27.635,34.542,53.887,56.19,77.375l75.071-35.004l66.321,47.9l-9.672,81.98
			c28.556,12.896,58.953,23.028,90.271,29.475l40.068-72.309h81.981l40.068,72.309c31.779-6.446,61.716-16.579,90.271-29.475
			l-10.132-81.98l66.321-48.359l75.071,34.543c21.647-23.49,40.069-49.281,55.729-76.916l-56.188-60.333l24.87-77.836
			L1427.001,846.516z"/>
		<path fill="none" stroke="#B74242" stroke-width="12.03" stroke-miterlimit="10" d="M1213.759,637.421
			c-89.81-107.772-250.086-122.97-358.317-33.16C747.669,694.07,732.47,854.347,822.74,962.578
			c89.811,107.772,250.086,122.512,357.858,33.16C1288.832,905.93,1303.569,745.193,1213.759,637.421z"/>
		<path fill="none" stroke="#F25252" stroke-width="12.03" stroke-miterlimit="10" d="M1184.743,661.831
			c-76.453-92.113-212.78-104.548-304.893-28.095c-91.652,76.454-104.548,212.78-28.095,304.895
			c76.454,91.65,212.78,104.547,304.894,28.094C1248.762,889.811,1261.198,753.483,1184.743,661.831z"/>
	</g>
</g>
</svg>
